<svg xmlns="http://www.w3.org/2000/svg" viewBox="0 0 200 200" width="100%" height="100%">
  <defs>
    <linearGradient id="redGradFav" x1="0%" y1="0%" x2="100%" y2="100%">
      <stop offset="0%" stop-color="#DC2626" />
      <stop offset="50%" stop-color="#B91C1C" />
      <stop offset="100%" stop-color="#7F1D1D" />
    </linearGradient>
    <path id="favTopArc" d="M 32,100 A 68,68 0 1,1 168,100" fill="none" />
    <path id="favBotArc" d="M 168,100 A 68,68 0 0,1 32,100" fill="none" />
  </defs>

  <circle cx="100" cy="100" r="96" fill="url(#redGradFav)" />
  <circle cx="100" cy="100" r="88" fill="none" stroke="#FFFFFF" stroke-width="2.5" />
  <circle cx="100" cy="100" r="54" fill="none" stroke="#FFFFFF" stroke-width="2" />

  <text font-family="system-ui, sans-serif" font-size="12" font-weight="900" fill="#FFFFFF" letter-spacing="3.2">
    <textPath href="#favTopArc" startOffset="50%" text-anchor="middle">
      ★ NOTARY ★
    </textPath>
  </text>
  <text font-family="system-ui, sans-serif" font-size="10" font-weight="800" fill="#FFFFFF" letter-spacing="2.5">
    <textPath href="#favBotArc" startOffset="50%" text-anchor="middle">
      • INDIA •
    </textPath>
  </text>

  <!-- Scales of Justice -->
  <g transform="translate(100, 100)" fill="#FFFFFF" stroke="#FFFFFF">
    <circle cx="0" cy="-33" r="3" fill="#FFFFFF" stroke="none" />
    <path d="M-28,-23 Q 0,-26 28,-23" fill="none" stroke="#FFFFFF" stroke-width="3" stroke-linecap="round" />
    <circle cx="0" cy="-24.5" r="3.2" fill="#FFFFFF" stroke="none" />
    
    <line x1="-26" y1="-23" x2="-35" y2="-8" stroke="#FFFFFF" stroke-width="1.5" />
    <line x1="-26" y1="-23" x2="-17" y2="-8" stroke="#FFFFFF" stroke-width="1.5" />
    <path d="M-37,-8 Q -26,-2 -15,-8 Z" fill="#FFFFFF" stroke="none" />

    <line x1="26" y1="-23" x2="17" y2="-8" stroke="#FFFFFF" stroke-width="1.5" />
    <line x1="26" y1="-23" x2="35" y2="-8" stroke="#FFFFFF" stroke-width="1.5" />
    <path d="M15,-8 Q 26,-2 37,-8 Z" fill="#FFFFFF" stroke="none" />

    <line x1="0" y1="-24" x2="0" y2="18" stroke="#FFFFFF" stroke-width="3.2" stroke-linecap="round" />
    <path d="M-18,12 Q -9,8 0,11 Q 9,8 18,12 L18,19 Q 9,15 0,18 Q -9,15 -18,19 Z" fill="#FFFFFF" stroke="none" />
    <rect x="-24" y="21" width="48" height="5" rx="1.5" fill="#FFFFFF" stroke="none" />
    <rect x="-28" y="27" width="56" height="5" rx="1.5" fill="#FFFFFF" stroke="none" />
  </g>
</svg>